<svg width="183" height="165" viewBox="0 0 183 165" fill="none" xmlns="http://www.w3.org/2000/svg">
<path fill-rule="evenodd" clip-rule="evenodd" d="M45 6.5C23.737 6.5 6.5 23.737 6.5 45C6.5 58.2603 13.2038 69.9548 23.4071 76.8793C24.9267 77.9106 26.5239 78.8361 28.1882 79.6452C33.2679 82.1147 38.9722 83.5 45 83.5C66.263 83.5 83.5 66.263 83.5 45C83.5 33.9505 78.8452 23.9883 71.3896 16.9671C70.0512 15.7066 68.6225 14.5409 67.1142 13.4808C60.8566 9.08227 53.2299 6.5 45 6.5ZM3.5 45C3.5 22.0802 22.0802 3.5 45 3.5C54.4729 3.5 63.2045 6.67389 70.1894 12.0163C71.6581 13.1397 73.0496 14.3589 74.3545 15.6647C81.8589 23.1739 86.5 33.545 86.5 45C86.5 67.9198 67.9198 86.5 45 86.5C38.954 86.5 33.21 85.2071 28.0293 82.8827C26.3352 82.1226 24.7014 81.2522 23.1369 80.2807C11.3489 72.9603 3.5 59.8968 3.5 45Z" fill="#F5F3F1"/>
<path fill-rule="evenodd" clip-rule="evenodd" d="M83.5 45C83.5 33.9505 78.8452 23.9883 71.3896 16.9671C70.0512 15.7066 68.6225 14.5409 67.1142 13.4808C60.8566 9.08227 53.2299 6.5 45 6.5C23.737 6.5 6.5 23.737 6.5 45C6.5 58.2603 13.2038 69.9548 23.4071 76.8793C24.9267 77.9106 26.5239 78.8361 28.1882 79.6452C33.2679 82.1147 38.9722 83.5 45 83.5C66.263 83.5 83.5 66.263 83.5 45ZM45 3.5C54.4729 3.5 63.2045 6.67389 70.1894 12.0163C71.6581 13.1397 73.0496 14.3589 74.3545 15.6647C81.8589 23.1739 86.5 33.545 86.5 45C86.5 67.9198 67.9198 86.5 45 86.5C38.954 86.5 33.21 85.2071 28.0293 82.8827C26.3352 82.1226 24.7014 81.2522 23.1369 80.2807C11.3489 72.9603 3.5 59.8968 3.5 45C3.5 22.0802 22.0802 3.5 45 3.5ZM23.0033 84.2666C23.0011 84.5108 23 84.7553 23 85C23 129.183 58.8172 165 103 165C147.183 165 183 129.183 183 85C183 40.8172 147.183 5 103 5C92.7187 5 82.8903 6.93947 73.8609 10.4725C75.2861 11.6651 76.6363 12.9442 77.9035 14.3018C85.7502 11.5163 94.198 10 103 10C144.421 10 178 43.5786 178 85C178 126.421 144.421 160 103 160C62.142 160 28.9149 127.329 28.0186 86.6857C26.2906 85.9811 24.6162 85.1721 23.0033 84.2666Z" fill="#F5F3F1"/>
<path d="M80 45C80 64.33 64.33 80 45 80C39.0524 80 33.4513 78.5165 28.5466 75.8993C28.3966 77.1389 28.2769 78.3878 28.1882 79.6452C33.2679 82.1147 38.9722 83.5 45 83.5C66.263 83.5 83.5 66.263 83.5 45C83.5 33.9505 78.8452 23.9883 71.3896 16.9671C70.2518 17.4967 69.1295 18.0539 68.0235 18.638C75.3635 25.0538 80 34.4854 80 45Z" fill="#F5F3F1"/>
<path d="M10 45C10 25.67 25.67 10 45 10C51.8391 10 58.22 11.9616 63.6109 15.3528C64.7612 14.7008 65.9293 14.0765 67.1142 13.4808C60.8566 9.08227 53.2299 6.5 45 6.5C23.737 6.5 6.5 23.737 6.5 45C6.5 58.2603 13.2038 69.9548 23.4071 76.8793C23.5408 75.5532 23.7068 74.2367 23.9045 72.9306C15.4577 66.5408 10 56.4078 10 45Z" fill="#F5F3F1"/>
<path d="M23.9045 72.9306C23.7068 74.2367 23.5408 75.5532 23.4071 76.8793C24.9267 77.9106 26.5239 78.8361 28.1882 79.6452C28.2769 78.3878 28.3966 77.1389 28.5466 75.8993C26.9182 75.0304 25.3666 74.0366 23.9045 72.9306Z" fill="#F5F3F1"/>
<path d="M63.6109 15.3528C65.1687 16.3328 66.6439 17.4321 68.0235 18.638C69.1295 18.0539 70.2518 17.4967 71.3896 16.9671C70.0512 15.7066 68.6225 14.5409 67.1142 13.4808C65.9293 14.0765 64.7612 14.7008 63.6109 15.3528Z" fill="#F5F3F1"/>
</svg>
